<svg width="149" height="46" viewBox="0 0 149 46" fill="none" xmlns="http://www.w3.org/2000/svg">
<path d="M10.33 30.24C9.71 30.24 9.23 30.07 8.89 29.73C8.57 29.37 8.41 28.88 8.41 28.26V12.06H2.56C2.04 12.06 1.63 11.92 1.33 11.64C1.05 11.34 0.91 10.94 0.91 10.44C0.91 9.92 1.05 9.53 1.33 9.27C1.63 8.99 2.04 8.85 2.56 8.85H18.1C18.62 8.85 19.02 8.99 19.3 9.27C19.6 9.53 19.75 9.92 19.75 10.44C19.75 10.94 19.6 11.34 19.3 11.64C19.02 11.92 18.62 12.06 18.1 12.06H12.25V28.26C12.25 28.88 12.09 29.37 11.77 29.73C11.45 30.07 10.97 30.24 10.33 30.24ZM25.0834 30.21C24.4834 30.21 24.0234 30.03 23.7034 29.67C23.3834 29.31 23.2234 28.81 23.2234 28.17V17.16C23.2234 16.5 23.3834 16 23.7034 15.66C24.0234 15.3 24.4834 15.12 25.0834 15.12C25.6834 15.12 26.1434 15.3 26.4634 15.66C26.8034 16 26.9734 16.5 26.9734 17.16V28.17C26.9734 28.81 26.8134 29.31 26.4934 29.67C26.1734 30.03 25.7034 30.21 25.0834 30.21ZM25.0834 12.33C24.3834 12.33 23.8334 12.16 23.4334 11.82C23.0534 11.46 22.8634 10.97 22.8634 10.35C22.8634 9.71 23.0534 9.22 23.4334 8.88C23.8334 8.54 24.3834 8.37 25.0834 8.37C25.8034 8.37 26.3534 8.54 26.7334 8.88C27.1134 9.22 27.3034 9.71 27.3034 10.35C27.3034 10.97 27.1134 11.46 26.7334 11.82C26.3534 12.16 25.8034 12.33 25.0834 12.33ZM37.6499 30.3C36.1099 30.3 34.7699 29.99 33.6299 29.37C32.4899 28.73 31.6099 27.83 30.9899 26.67C30.3699 25.51 30.0599 24.15 30.0599 22.59C30.0599 21.41 30.2299 20.36 30.5699 19.44C30.9299 18.5 31.4399 17.71 32.0999 17.07C32.7599 16.41 33.5599 15.91 34.4999 15.57C35.4399 15.21 36.4899 15.03 37.6499 15.03C38.3099 15.03 39.0199 15.12 39.7799 15.3C40.5599 15.48 41.2899 15.78 41.9699 16.2C42.2899 16.4 42.4999 16.64 42.5999 16.92C42.6999 17.2 42.7199 17.49 42.6599 17.79C42.5999 18.07 42.4699 18.32 42.2699 18.54C42.0899 18.74 41.8599 18.87 41.5799 18.93C41.2999 18.97 40.9899 18.9 40.6499 18.72C40.2099 18.46 39.7599 18.27 39.2999 18.15C38.8399 18.01 38.3999 17.94 37.9799 17.94C37.3199 17.94 36.7399 18.05 36.2399 18.27C35.7399 18.47 35.3099 18.77 34.9499 19.17C34.6099 19.55 34.3499 20.03 34.1699 20.61C33.9899 21.19 33.8999 21.86 33.8999 22.62C33.8999 24.1 34.2499 25.27 34.9499 26.13C35.6699 26.97 36.6799 27.39 37.9799 27.39C38.3999 27.39 38.8299 27.33 39.2699 27.21C39.7299 27.09 40.1899 26.9 40.6499 26.64C40.9899 26.46 41.2899 26.4 41.5499 26.46C41.8299 26.52 42.0599 26.66 42.2399 26.88C42.4199 27.08 42.5299 27.33 42.5699 27.63C42.6099 27.91 42.5699 28.19 42.4499 28.47C42.3499 28.75 42.1499 28.98 41.8499 29.16C41.1899 29.56 40.4899 29.85 39.7499 30.03C39.0099 30.21 38.3099 30.3 37.6499 30.3ZM46.8803 30.24C46.2803 30.24 45.8203 30.08 45.5003 29.76C45.1803 29.42 45.0203 28.94 45.0203 28.32V10.5C45.0203 9.88 45.1803 9.41 45.5003 9.09C45.8203 8.77 46.2803 8.61 46.8803 8.61C47.4803 8.61 47.9403 8.77 48.2603 9.09C48.6003 9.41 48.7703 9.88 48.7703 10.5V21.57H48.8303L53.7803 16.35C54.1803 15.95 54.5303 15.64 54.8303 15.42C55.1303 15.2 55.5403 15.09 56.0603 15.09C56.5803 15.09 56.9703 15.23 57.2303 15.51C57.5103 15.77 57.6503 16.09 57.6503 16.47C57.6503 16.85 57.4703 17.23 57.1103 17.61L51.8903 23.13V21.57L57.6203 27.75C57.9803 28.13 58.1403 28.52 58.1003 28.92C58.0803 29.3 57.9203 29.62 57.6203 29.88C57.3203 30.12 56.9403 30.24 56.4803 30.24C55.9203 30.24 55.4703 30.13 55.1303 29.91C54.8103 29.69 54.4503 29.36 54.0503 28.92L48.8303 23.46H48.7703V28.32C48.7703 29.6 48.1403 30.24 46.8803 30.24ZM68.0413 30.3C66.3813 30.3 64.9513 29.99 63.7513 29.37C62.5513 28.75 61.6213 27.87 60.9613 26.73C60.3213 25.59 60.0013 24.24 60.0013 22.68C60.0013 21.16 60.3113 19.83 60.9313 18.69C61.5713 17.55 62.4413 16.66 63.5413 16.02C64.6613 15.36 65.9313 15.03 67.3513 15.03C68.3913 15.03 69.3213 15.2 70.1413 15.54C70.9813 15.88 71.6913 16.37 72.2713 17.01C72.8713 17.65 73.3213 18.43 73.6213 19.35C73.9413 20.25 74.1013 21.27 74.1013 22.41C74.1013 22.77 73.9713 23.05 73.7113 23.25C73.4713 23.43 73.1213 23.52 72.6613 23.52H63.0313V21.36H71.4613L70.9813 21.81C70.9813 20.89 70.8413 20.12 70.5613 19.5C70.3013 18.88 69.9113 18.41 69.3913 18.09C68.8913 17.75 68.2613 17.58 67.5013 17.58C66.6613 17.58 65.9413 17.78 65.3413 18.18C64.7613 18.56 64.3113 19.11 63.9913 19.83C63.6913 20.53 63.5413 21.37 63.5413 22.35V22.56C63.5413 24.2 63.9213 25.43 64.6813 26.25C65.4613 27.05 66.6013 27.45 68.1013 27.45C68.6213 27.45 69.2013 27.39 69.8413 27.27C70.5013 27.13 71.1213 26.9 71.7013 26.58C72.1213 26.34 72.4913 26.24 72.8113 26.28C73.1313 26.3 73.3813 26.41 73.5613 26.61C73.7613 26.81 73.8813 27.06 73.9213 27.36C73.9613 27.64 73.9013 27.93 73.7413 28.23C73.6013 28.53 73.3513 28.79 72.9913 29.01C72.2913 29.45 71.4813 29.78 70.5613 30C69.6613 30.2 68.8213 30.3 68.0413 30.3ZM83.7325 30.3C82.4325 30.3 81.3425 30.08 80.4625 29.64C79.6025 29.2 78.9625 28.56 78.5425 27.72C78.1225 26.86 77.9125 25.8 77.9125 24.54V18.15H76.3525C75.8725 18.15 75.5025 18.03 75.2425 17.79C74.9825 17.53 74.8525 17.18 74.8525 16.74C74.8525 16.28 74.9825 15.93 75.2425 15.69C75.5025 15.45 75.8725 15.33 76.3525 15.33H77.9125V12.6C77.9125 11.98 78.0725 11.51 78.3925 11.19C78.7325 10.87 79.2025 10.71 79.8025 10.71C80.4025 10.71 80.8625 10.87 81.1825 11.19C81.5025 11.51 81.6625 11.98 81.6625 12.6V15.33H84.8425C85.3225 15.33 85.6925 15.45 85.9525 15.69C86.2125 15.93 86.3425 16.28 86.3425 16.74C86.3425 17.18 86.2125 17.53 85.9525 17.79C85.6925 18.03 85.3225 18.15 84.8425 18.15H81.6625V24.33C81.6625 25.29 81.8725 26.01 82.2925 26.49C82.7125 26.97 83.3925 27.21 84.3325 27.21C84.6725 27.21 84.9725 27.18 85.2325 27.12C85.4925 27.06 85.7225 27.02 85.9225 27C86.1625 26.98 86.3625 27.06 86.5225 27.24C86.6825 27.4 86.7625 27.74 86.7625 28.26C86.7625 28.66 86.6925 29.02 86.5525 29.34C86.4325 29.64 86.2025 29.85 85.8625 29.97C85.6025 30.05 85.2625 30.12 84.8425 30.18C84.4225 30.26 84.0525 30.3 83.7325 30.3ZM95.0697 30.3C93.5497 30.3 92.2297 29.99 91.1097 29.37C89.9897 28.75 89.1197 27.87 88.4997 26.73C87.8797 25.57 87.5697 24.21 87.5697 22.65C87.5697 21.47 87.7397 20.42 88.0797 19.5C88.4397 18.56 88.9497 17.76 89.6097 17.1C90.2697 16.42 91.0597 15.91 91.9797 15.57C92.8997 15.21 93.9297 15.03 95.0697 15.03C96.5897 15.03 97.9097 15.34 99.0297 15.96C100.15 16.58 101.02 17.46 101.64 18.6C102.26 19.74 102.57 21.09 102.57 22.65C102.57 23.83 102.39 24.89 102.03 25.83C101.69 26.77 101.19 27.58 100.53 28.26C99.8697 28.92 99.0797 29.43 98.1597 29.79C97.2397 30.13 96.2097 30.3 95.0697 30.3ZM95.0697 27.45C95.8097 27.45 96.4597 27.27 97.0197 26.91C97.5797 26.55 98.0097 26.02 98.3097 25.32C98.6297 24.6 98.7897 23.71 98.7897 22.65C98.7897 21.05 98.4497 19.86 97.7697 19.08C97.0897 18.28 96.1897 17.88 95.0697 17.88C94.3297 17.88 93.6797 18.06 93.1197 18.42C92.5597 18.76 92.1197 19.29 91.7997 20.01C91.4997 20.71 91.3497 21.59 91.3497 22.65C91.3497 24.23 91.6897 25.43 92.3697 26.25C93.0497 27.05 93.9497 27.45 95.0697 27.45ZM107.525 30.24C106.925 30.24 106.465 30.08 106.145 29.76C105.825 29.42 105.665 28.94 105.665 28.32V10.5C105.665 9.88 105.825 9.41 106.145 9.09C106.465 8.77 106.925 8.61 107.525 8.61C108.125 8.61 108.585 8.77 108.905 9.09C109.245 9.41 109.415 9.88 109.415 10.5V21.57H109.475L114.425 16.35C114.825 15.95 115.175 15.64 115.475 15.42C115.775 15.2 116.185 15.09 116.705 15.09C117.225 15.09 117.615 15.23 117.875 15.51C118.155 15.77 118.295 16.09 118.295 16.47C118.295 16.85 118.115 17.23 117.755 17.61L112.535 23.13V21.57L118.265 27.75C118.625 28.13 118.785 28.52 118.745 28.92C118.725 29.3 118.565 29.62 118.265 29.88C117.965 30.12 117.585 30.24 117.125 30.24C116.565 30.24 116.115 30.13 115.775 29.91C115.455 29.69 115.095 29.36 114.695 28.92L109.475 23.46H109.415V28.32C109.415 29.6 108.785 30.24 107.525 30.24Z" fill="#919191"/>
<path d="M5.11622 42.108C4.74022 42.108 4.37622 42.076 4.02422 42.012C3.67222 41.956 3.34022 41.868 3.02822 41.748C2.71622 41.628 2.43622 41.48 2.18822 41.304C2.08422 41.232 2.00822 41.144 1.96022 41.04C1.92022 40.936 1.90822 40.836 1.92422 40.74C1.94822 40.636 1.99222 40.548 2.05622 40.476C2.12822 40.404 2.21222 40.36 2.30822 40.344C2.40422 40.328 2.50822 40.36 2.62022 40.44C2.98822 40.688 3.37222 40.868 3.77222 40.98C4.18022 41.092 4.62822 41.148 5.11622 41.148C5.82022 41.148 6.33622 41.02 6.66422 40.764C7.00022 40.508 7.16822 40.172 7.16822 39.756C7.16822 39.412 7.04822 39.144 6.80822 38.952C6.56822 38.752 6.16422 38.596 5.59622 38.484L4.32422 38.22C3.57222 38.06 3.00822 37.796 2.63222 37.428C2.26422 37.06 2.08022 36.568 2.08022 35.952C2.08022 35.576 2.15622 35.236 2.30822 34.932C2.46022 34.62 2.67622 34.352 2.95622 34.128C3.23622 33.904 3.56422 33.732 3.94022 33.612C4.32422 33.492 4.74822 33.432 5.21222 33.432C5.70822 33.432 6.17222 33.5 6.60422 33.636C7.04422 33.772 7.44022 33.972 7.79222 34.236C7.88822 34.308 7.95222 34.396 7.98422 34.5C8.01622 34.596 8.02022 34.692 7.99622 34.788C7.98022 34.884 7.93622 34.964 7.86422 35.028C7.80022 35.092 7.71622 35.128 7.61222 35.136C7.51622 35.144 7.40822 35.108 7.28822 35.028C6.96822 34.804 6.64022 34.644 6.30422 34.548C5.96822 34.444 5.60022 34.392 5.20022 34.392C4.79222 34.392 4.43622 34.456 4.13222 34.584C3.83622 34.712 3.60422 34.892 3.43622 35.124C3.27622 35.348 3.19622 35.612 3.19622 35.916C3.19622 36.284 3.30822 36.572 3.53222 36.78C3.75622 36.988 4.13222 37.148 4.66022 37.26L5.92022 37.512C6.72022 37.68 7.31222 37.94 7.69622 38.292C8.08822 38.636 8.28422 39.1 8.28422 39.684C8.28422 40.052 8.20822 40.384 8.05622 40.68C7.91222 40.976 7.70422 41.232 7.43222 41.448C7.16022 41.656 6.82822 41.82 6.43622 41.94C6.04422 42.052 5.60422 42.108 5.11622 42.108ZM11.4782 42.108C11.0782 42.108 10.7142 42.028 10.3862 41.868C10.0662 41.708 9.81419 41.492 9.63019 41.22C9.45419 40.948 9.36619 40.644 9.36619 40.308C9.36619 39.876 9.47419 39.536 9.69019 39.288C9.90619 39.04 10.2702 38.864 10.7822 38.76C11.2942 38.648 11.9822 38.592 12.8462 38.592H13.4102V39.288H12.8702C12.2542 39.288 11.7662 39.316 11.4062 39.372C11.0542 39.428 10.8062 39.528 10.6622 39.672C10.5182 39.808 10.4462 40 10.4462 40.248C10.4462 40.56 10.5542 40.816 10.7702 41.016C10.9942 41.216 11.2982 41.316 11.6822 41.316C11.9862 41.316 12.2542 41.244 12.4862 41.1C12.7182 40.948 12.9022 40.748 13.0382 40.5C13.1742 40.244 13.2422 39.952 13.2422 39.624V38.244C13.2422 37.772 13.1462 37.432 12.9542 37.224C12.7622 37.008 12.4382 36.9 11.9822 36.9C11.7182 36.9 11.4462 36.936 11.1662 37.008C10.8862 37.08 10.5942 37.192 10.2902 37.344C10.1702 37.4 10.0662 37.42 9.97819 37.404C9.89019 37.38 9.81819 37.332 9.76219 37.26C9.71419 37.18 9.68619 37.096 9.67819 37.008C9.67819 36.912 9.69819 36.82 9.73819 36.732C9.78619 36.644 9.86619 36.58 9.97819 36.54C10.3302 36.364 10.6782 36.24 11.0222 36.168C11.3742 36.088 11.7022 36.048 12.0062 36.048C12.5262 36.048 12.9542 36.132 13.2902 36.3C13.6262 36.46 13.8782 36.712 14.0462 37.056C14.2142 37.392 14.2982 37.824 14.2982 38.352V41.52C14.2982 41.704 14.2542 41.844 14.1662 41.94C14.0782 42.036 13.9502 42.084 13.7822 42.084C13.6222 42.084 13.4942 42.036 13.3982 41.94C13.3102 41.844 13.2662 41.704 13.2662 41.52V40.668H13.3742C13.3102 40.964 13.1902 41.22 13.0142 41.436C12.8382 41.652 12.6182 41.82 12.3542 41.94C12.0982 42.052 11.8062 42.108 11.4782 42.108ZM17.8526 42.108C17.2526 42.108 16.7966 41.932 16.4846 41.58C16.1726 41.22 16.0166 40.704 16.0166 40.032V34.008C16.0166 33.824 16.0646 33.688 16.1606 33.6C16.2566 33.504 16.3886 33.456 16.5566 33.456C16.7326 33.456 16.8686 33.504 16.9646 33.6C17.0606 33.688 17.1086 33.824 17.1086 34.008V39.948C17.1086 40.364 17.1926 40.676 17.3606 40.884C17.5366 41.084 17.7846 41.184 18.1046 41.184C18.1766 41.184 18.2406 41.184 18.2966 41.184C18.3526 41.176 18.4086 41.168 18.4646 41.16C18.5526 41.152 18.6166 41.176 18.6566 41.232C18.6966 41.288 18.7166 41.4 18.7166 41.568C18.7166 41.72 18.6806 41.84 18.6086 41.928C18.5446 42.008 18.4366 42.06 18.2846 42.084C18.2126 42.092 18.1406 42.096 18.0686 42.096C17.9966 42.104 17.9246 42.108 17.8526 42.108ZM22.2674 42.108C21.6354 42.108 21.0914 41.988 20.6354 41.748C20.1874 41.5 19.8394 41.152 19.5914 40.704C19.3434 40.248 19.2194 39.712 19.2194 39.096C19.2194 38.488 19.3394 37.956 19.5794 37.5C19.8274 37.044 20.1634 36.688 20.5874 36.432C21.0194 36.176 21.5114 36.048 22.0634 36.048C22.4554 36.048 22.8074 36.116 23.1194 36.252C23.4394 36.38 23.7114 36.568 23.9354 36.816C24.1594 37.064 24.3274 37.368 24.4394 37.728C24.5594 38.08 24.6194 38.48 24.6194 38.928C24.6194 39.056 24.5794 39.156 24.4994 39.228C24.4274 39.292 24.3194 39.324 24.1754 39.324H20.0714V38.628H23.8994L23.6954 38.796C23.6954 38.38 23.6314 38.028 23.5034 37.74C23.3834 37.444 23.2034 37.22 22.9634 37.068C22.7314 36.916 22.4394 36.84 22.0874 36.84C21.7034 36.84 21.3754 36.932 21.1034 37.116C20.8314 37.292 20.6234 37.544 20.4794 37.872C20.3354 38.192 20.2634 38.564 20.2634 38.988V39.06C20.2634 39.78 20.4354 40.324 20.7794 40.692C21.1234 41.06 21.6194 41.244 22.2674 41.244C22.5234 41.244 22.7834 41.212 23.0474 41.148C23.3194 41.084 23.5794 40.968 23.8274 40.8C23.9474 40.728 24.0554 40.696 24.1514 40.704C24.2554 40.704 24.3394 40.736 24.4034 40.8C24.4674 40.856 24.5074 40.928 24.5234 41.016C24.5394 41.096 24.5274 41.184 24.4874 41.28C24.4474 41.376 24.3714 41.46 24.2594 41.532C23.9954 41.716 23.6794 41.86 23.3114 41.964C22.9514 42.06 22.6034 42.108 22.2674 42.108ZM27.9936 42.108C27.6336 42.108 27.2696 42.068 26.9016 41.988C26.5416 41.9 26.2016 41.752 25.8816 41.544C25.7936 41.488 25.7296 41.42 25.6896 41.34C25.6576 41.252 25.6456 41.168 25.6536 41.088C25.6696 41 25.7056 40.924 25.7616 40.86C25.8176 40.796 25.8856 40.76 25.9656 40.752C26.0536 40.736 26.1456 40.756 26.2416 40.812C26.5536 40.988 26.8536 41.112 27.1416 41.184C27.4376 41.256 27.7296 41.292 28.0176 41.292C28.4576 41.292 28.7896 41.212 29.0136 41.052C29.2376 40.892 29.3496 40.68 29.3496 40.416C29.3496 40.192 29.2736 40.02 29.1216 39.9C28.9776 39.772 28.7496 39.676 28.4376 39.612L27.3216 39.384C26.8256 39.272 26.4496 39.088 26.1936 38.832C25.9456 38.568 25.8216 38.232 25.8216 37.824C25.8216 37.464 25.9176 37.152 26.1096 36.888C26.3096 36.616 26.5856 36.408 26.9376 36.264C27.2896 36.12 27.6936 36.048 28.1496 36.048C28.5016 36.048 28.8336 36.096 29.1456 36.192C29.4656 36.28 29.7536 36.416 30.0096 36.6C30.1056 36.656 30.1656 36.728 30.1896 36.816C30.2216 36.896 30.2256 36.98 30.2016 37.068C30.1856 37.148 30.1496 37.216 30.0936 37.272C30.0376 37.328 29.9656 37.364 29.8776 37.38C29.7896 37.388 29.6936 37.364 29.5896 37.308C29.3576 37.148 29.1176 37.036 28.8696 36.972C28.6296 36.9 28.3896 36.864 28.1496 36.864C27.7176 36.864 27.3896 36.948 27.1656 37.116C26.9496 37.284 26.8416 37.504 26.8416 37.776C26.8416 37.984 26.9056 38.156 27.0336 38.292C27.1696 38.428 27.3816 38.528 27.6696 38.592L28.7856 38.82C29.3056 38.932 29.6976 39.112 29.9616 39.36C30.2256 39.6 30.3576 39.928 30.3576 40.344C30.3576 40.888 30.1416 41.32 29.7096 41.64C29.2856 41.952 28.7136 42.108 27.9936 42.108ZM35.5793 42.084C35.4193 42.084 35.2953 42.036 35.2073 41.94C35.1193 41.844 35.0753 41.716 35.0753 41.556V33.984C35.0753 33.816 35.1193 33.688 35.2073 33.6C35.3033 33.504 35.4313 33.456 35.5913 33.456C35.7353 33.456 35.8473 33.484 35.9273 33.54C36.0153 33.596 36.0953 33.692 36.1673 33.828L39.3833 39.864H39.0113L42.2273 33.828C42.2993 33.692 42.3753 33.596 42.4553 33.54C42.5353 33.484 42.6473 33.456 42.7913 33.456C42.9513 33.456 43.0753 33.504 43.1633 33.6C43.2513 33.688 43.2953 33.816 43.2953 33.984V41.556C43.2953 41.716 43.2513 41.844 43.1633 41.94C43.0833 42.036 42.9593 42.084 42.7913 42.084C42.6233 42.084 42.4953 42.036 42.4073 41.94C42.3273 41.844 42.2873 41.716 42.2873 41.556V35.088H42.5513L39.6713 40.476C39.6073 40.58 39.5393 40.66 39.4673 40.716C39.4033 40.764 39.3113 40.788 39.1913 40.788C39.0793 40.788 38.9833 40.76 38.9033 40.704C38.8313 40.648 38.7673 40.572 38.7113 40.476L35.7952 35.076H36.0833V41.556C36.0833 41.716 36.0393 41.844 35.9513 41.94C35.8713 42.036 35.7473 42.084 35.5793 42.084ZM47.068 42.108C46.668 42.108 46.304 42.028 45.976 41.868C45.656 41.708 45.404 41.492 45.22 41.22C45.044 40.948 44.956 40.644 44.956 40.308C44.956 39.876 45.064 39.536 45.28 39.288C45.496 39.04 45.86 38.864 46.372 38.76C46.884 38.648 47.572 38.592 48.436 38.592H49V39.288H48.46C47.844 39.288 47.356 39.316 46.996 39.372C46.644 39.428 46.396 39.528 46.252 39.672C46.108 39.808 46.036 40 46.036 40.248C46.036 40.56 46.144 40.816 46.36 41.016C46.584 41.216 46.888 41.316 47.272 41.316C47.576 41.316 47.844 41.244 48.076 41.1C48.308 40.948 48.492 40.748 48.628 40.5C48.764 40.244 48.832 39.952 48.832 39.624V38.244C48.832 37.772 48.736 37.432 48.544 37.224C48.352 37.008 48.028 36.9 47.572 36.9C47.308 36.9 47.036 36.936 46.756 37.008C46.476 37.08 46.184 37.192 45.88 37.344C45.76 37.4 45.656 37.42 45.568 37.404C45.48 37.38 45.408 37.332 45.352 37.26C45.304 37.18 45.276 37.096 45.268 37.008C45.268 36.912 45.288 36.82 45.328 36.732C45.376 36.644 45.456 36.58 45.568 36.54C45.92 36.364 46.268 36.24 46.612 36.168C46.964 36.088 47.292 36.048 47.596 36.048C48.116 36.048 48.544 36.132 48.88 36.3C49.216 36.46 49.468 36.712 49.636 37.056C49.804 37.392 49.888 37.824 49.888 38.352V41.52C49.888 41.704 49.844 41.844 49.756 41.94C49.668 42.036 49.54 42.084 49.372 42.084C49.212 42.084 49.084 42.036 48.988 41.94C48.9 41.844 48.856 41.704 48.856 41.52V40.668H48.964C48.9 40.964 48.78 41.22 48.604 41.436C48.428 41.652 48.208 41.82 47.944 41.94C47.688 42.052 47.396 42.108 47.068 42.108ZM52.1465 42.084C51.9785 42.084 51.8465 42.036 51.7505 41.94C51.6545 41.844 51.6065 41.704 51.6065 41.52V36.624C51.6065 36.44 51.6545 36.304 51.7505 36.216C51.8465 36.12 51.9785 36.072 52.1465 36.072C52.3145 36.072 52.4425 36.12 52.5305 36.216C52.6265 36.304 52.6745 36.44 52.6745 36.624V37.608L52.5425 37.428C52.7105 36.972 52.9825 36.628 53.3585 36.396C53.7425 36.164 54.1785 36.048 54.6665 36.048C55.1385 36.048 55.5265 36.132 55.8305 36.3C56.1345 36.468 56.3625 36.724 56.5145 37.068C56.6665 37.412 56.7425 37.848 56.7425 38.376V41.52C56.7425 41.704 56.6945 41.844 56.5985 41.94C56.5105 42.036 56.3785 42.084 56.2025 42.084C56.0265 42.084 55.8905 42.036 55.7945 41.94C55.6985 41.844 55.6505 41.704 55.6505 41.52V38.436C55.6505 37.916 55.5505 37.536 55.3505 37.296C55.1505 37.056 54.8305 36.936 54.3905 36.936C53.8785 36.936 53.4665 37.096 53.1545 37.416C52.8505 37.728 52.6985 38.152 52.6985 38.688V41.52C52.6985 41.896 52.5145 42.084 52.1465 42.084ZM60.3337 42.108C59.9337 42.108 59.5697 42.028 59.2417 41.868C58.9217 41.708 58.6697 41.492 58.4857 41.22C58.3097 40.948 58.2217 40.644 58.2217 40.308C58.2217 39.876 58.3297 39.536 58.5457 39.288C58.7617 39.04 59.1257 38.864 59.6377 38.76C60.1497 38.648 60.8377 38.592 61.7017 38.592H62.2657V39.288H61.7257C61.1097 39.288 60.6217 39.316 60.2617 39.372C59.9097 39.428 59.6617 39.528 59.5177 39.672C59.3737 39.808 59.3017 40 59.3017 40.248C59.3017 40.56 59.4097 40.816 59.6257 41.016C59.8497 41.216 60.1537 41.316 60.5377 41.316C60.8417 41.316 61.1097 41.244 61.3417 41.1C61.5737 40.948 61.7577 40.748 61.8937 40.5C62.0297 40.244 62.0977 39.952 62.0977 39.624V38.244C62.0977 37.772 62.0017 37.432 61.8097 37.224C61.6177 37.008 61.2937 36.9 60.8377 36.9C60.5737 36.9 60.3017 36.936 60.0217 37.008C59.7417 37.08 59.4497 37.192 59.1457 37.344C59.0257 37.4 58.9217 37.42 58.8337 37.404C58.7457 37.38 58.6737 37.332 58.6177 37.26C58.5697 37.18 58.5417 37.096 58.5337 37.008C58.5337 36.912 58.5537 36.82 58.5937 36.732C58.6417 36.644 58.7217 36.58 58.8337 36.54C59.1857 36.364 59.5337 36.24 59.8777 36.168C60.2297 36.088 60.5577 36.048 60.8617 36.048C61.3817 36.048 61.8097 36.132 62.1457 36.3C62.4817 36.46 62.7337 36.712 62.9017 37.056C63.0697 37.392 63.1537 37.824 63.1537 38.352V41.52C63.1537 41.704 63.1097 41.844 63.0217 41.94C62.9337 42.036 62.8057 42.084 62.6377 42.084C62.4777 42.084 62.3497 42.036 62.2537 41.94C62.1657 41.844 62.1217 41.704 62.1217 41.52V40.668H62.2297C62.1657 40.964 62.0457 41.22 61.8697 41.436C61.6937 41.652 61.4737 41.82 61.2097 41.94C60.9537 42.052 60.6617 42.108 60.3337 42.108ZM67.5001 44.268C67.0681 44.268 66.6481 44.22 66.2401 44.124C65.8401 44.028 65.4761 43.88 65.1481 43.68C65.0441 43.616 64.9721 43.54 64.9321 43.452C64.9001 43.372 64.8921 43.288 64.9081 43.2C64.9321 43.112 64.9721 43.032 65.0281 42.96C65.0921 42.896 65.1641 42.852 65.2441 42.828C65.3321 42.812 65.4201 42.832 65.5081 42.888C65.8601 43.088 66.1961 43.224 66.5161 43.296C66.8361 43.368 67.1401 43.404 67.4281 43.404C67.9961 43.404 68.4201 43.256 68.7001 42.96C68.9881 42.672 69.1321 42.248 69.1321 41.688V40.392H69.2401C69.1281 40.84 68.8761 41.196 68.4841 41.46C68.1001 41.724 67.6521 41.856 67.1401 41.856C66.6121 41.856 66.1521 41.736 65.7601 41.496C65.3681 41.248 65.0641 40.908 64.8481 40.476C64.6321 40.036 64.5241 39.528 64.5241 38.952C64.5241 38.512 64.5841 38.116 64.7041 37.764C64.8321 37.404 65.0081 37.1 65.2321 36.852C65.4641 36.596 65.7401 36.4 66.0601 36.264C66.3801 36.12 66.7401 36.048 67.1401 36.048C67.6601 36.048 68.1121 36.18 68.4961 36.444C68.8801 36.708 69.1281 37.064 69.2401 37.512L69.1081 37.68V36.624C69.1081 36.44 69.1561 36.304 69.2521 36.216C69.3481 36.12 69.4841 36.072 69.6601 36.072C69.8281 36.072 69.9601 36.12 70.0561 36.216C70.1521 36.304 70.2001 36.44 70.2001 36.624V41.544C70.2001 42.448 69.9681 43.128 69.5041 43.584C69.0481 44.04 68.3801 44.268 67.5001 44.268ZM67.3801 40.992C67.7401 40.992 68.0481 40.912 68.3041 40.752C68.5681 40.584 68.7681 40.348 68.9041 40.044C69.0481 39.732 69.1201 39.368 69.1201 38.952C69.1201 38.32 68.9641 37.824 68.6521 37.464C68.3401 37.096 67.9161 36.912 67.3801 36.912C67.0201 36.912 66.7081 36.996 66.4441 37.164C66.1881 37.324 65.9881 37.556 65.8441 37.86C65.7001 38.164 65.6281 38.528 65.6281 38.952C65.6281 39.576 65.7841 40.072 66.0961 40.44C66.4161 40.808 66.8441 40.992 67.3801 40.992ZM74.6502 42.108C74.0182 42.108 73.4742 41.988 73.0182 41.748C72.5702 41.5 72.2222 41.152 71.9742 40.704C71.7262 40.248 71.6022 39.712 71.6022 39.096C71.6022 38.488 71.7222 37.956 71.9622 37.5C72.2102 37.044 72.5462 36.688 72.9702 36.432C73.4022 36.176 73.8942 36.048 74.4462 36.048C74.8382 36.048 75.1902 36.116 75.5022 36.252C75.8222 36.38 76.0942 36.568 76.3182 36.816C76.5422 37.064 76.7102 37.368 76.8222 37.728C76.9422 38.08 77.0022 38.48 77.0022 38.928C77.0022 39.056 76.9622 39.156 76.8822 39.228C76.8102 39.292 76.7022 39.324 76.5582 39.324H72.4542V38.628H76.2822L76.0782 38.796C76.0782 38.38 76.0142 38.028 75.8862 37.74C75.7662 37.444 75.5862 37.22 75.3462 37.068C75.1142 36.916 74.8222 36.84 74.4702 36.84C74.0862 36.84 73.7582 36.932 73.4862 37.116C73.2142 37.292 73.0062 37.544 72.8622 37.872C72.7182 38.192 72.6462 38.564 72.6462 38.988V39.06C72.6462 39.78 72.8182 40.324 73.1622 40.692C73.5062 41.06 74.0022 41.244 74.6502 41.244C74.9062 41.244 75.1662 41.212 75.4302 41.148C75.7022 41.084 75.9622 40.968 76.2102 40.8C76.3302 40.728 76.4382 40.696 76.5342 40.704C76.6382 40.704 76.7222 40.736 76.7862 40.8C76.8502 40.856 76.8902 40.928 76.9062 41.016C76.9222 41.096 76.9102 41.184 76.8702 41.28C76.8302 41.376 76.7542 41.46 76.6422 41.532C76.3782 41.716 76.0622 41.86 75.6942 41.964C75.3342 42.06 74.9862 42.108 74.6502 42.108ZM78.9244 42.084C78.7564 42.084 78.6244 42.036 78.5284 41.94C78.4324 41.844 78.3844 41.704 78.3844 41.52V36.624C78.3844 36.44 78.4324 36.304 78.5284 36.216C78.6244 36.12 78.7564 36.072 78.9244 36.072C79.0924 36.072 79.2204 36.12 79.3084 36.216C79.4044 36.304 79.4524 36.44 79.4524 36.624V37.644L79.3204 37.428C79.4724 36.988 79.7164 36.648 80.0524 36.408C80.3964 36.168 80.8044 36.048 81.2764 36.048C81.7724 36.048 82.1724 36.168 82.4764 36.408C82.7804 36.64 82.9844 36.996 83.0884 37.476H82.9204C83.0644 37.036 83.3204 36.688 83.6884 36.432C84.0644 36.176 84.5004 36.048 84.9964 36.048C85.4364 36.048 85.7964 36.136 86.0764 36.312C86.3644 36.48 86.5804 36.736 86.7244 37.08C86.8684 37.416 86.9404 37.848 86.9404 38.376V41.52C86.9404 41.704 86.8924 41.844 86.7964 41.94C86.7004 42.036 86.5684 42.084 86.4004 42.084C86.2244 42.084 86.0884 42.036 85.9924 41.94C85.8964 41.844 85.8484 41.704 85.8484 41.52V38.424C85.8484 37.912 85.7604 37.536 85.5844 37.296C85.4084 37.056 85.1124 36.936 84.6964 36.936C84.2404 36.936 83.8764 37.096 83.6044 37.416C83.3404 37.728 83.2084 38.16 83.2084 38.712V41.52C83.2084 41.704 83.1604 41.844 83.0644 41.94C82.9764 42.036 82.8444 42.084 82.6684 42.084C82.4924 42.084 82.3564 42.036 82.2604 41.94C82.1644 41.844 82.1164 41.704 82.1164 41.52V38.424C82.1164 37.912 82.0284 37.536 81.8524 37.296C81.6764 37.056 81.3804 36.936 80.9644 36.936C80.5084 36.936 80.1444 37.096 79.8724 37.416C79.6084 37.728 79.4764 38.16 79.4764 38.712V41.52C79.4764 41.896 79.2924 42.084 78.9244 42.084ZM91.3963 42.108C90.7643 42.108 90.2203 41.988 89.7643 41.748C89.3163 41.5 88.9683 41.152 88.7203 40.704C88.4723 40.248 88.3483 39.712 88.3483 39.096C88.3483 38.488 88.4683 37.956 88.7083 37.5C88.9563 37.044 89.2923 36.688 89.7163 36.432C90.1483 36.176 90.6403 36.048 91.1923 36.048C91.5843 36.048 91.9363 36.116 92.2483 36.252C92.5683 36.38 92.8403 36.568 93.0643 36.816C93.2883 37.064 93.4563 37.368 93.5683 37.728C93.6883 38.08 93.7483 38.48 93.7483 38.928C93.7483 39.056 93.7083 39.156 93.6283 39.228C93.5563 39.292 93.4483 39.324 93.3043 39.324H89.2003V38.628H93.0283L92.8243 38.796C92.8243 38.38 92.7603 38.028 92.6323 37.74C92.5123 37.444 92.3323 37.22 92.0923 37.068C91.8603 36.916 91.5683 36.84 91.2163 36.84C90.8323 36.84 90.5043 36.932 90.2323 37.116C89.9603 37.292 89.7523 37.544 89.6083 37.872C89.4643 38.192 89.3923 38.564 89.3923 38.988V39.06C89.3923 39.78 89.5643 40.324 89.9083 40.692C90.2523 41.06 90.7483 41.244 91.3963 41.244C91.6523 41.244 91.9123 41.212 92.1763 41.148C92.4483 41.084 92.7083 40.968 92.9563 40.8C93.0763 40.728 93.1843 40.696 93.2803 40.704C93.3843 40.704 93.4683 40.736 93.5323 40.8C93.5963 40.856 93.6363 40.928 93.6523 41.016C93.6683 41.096 93.6563 41.184 93.6163 41.28C93.5763 41.376 93.5003 41.46 93.3883 41.532C93.1243 41.716 92.8083 41.86 92.4403 41.964C92.0803 42.06 91.7323 42.108 91.3963 42.108ZM95.6465 42.084C95.4785 42.084 95.3465 42.036 95.2505 41.94C95.1545 41.844 95.1065 41.704 95.1065 41.52V36.624C95.1065 36.44 95.1545 36.304 95.2505 36.216C95.3465 36.12 95.4785 36.072 95.6465 36.072C95.8145 36.072 95.9425 36.12 96.0305 36.216C96.1265 36.304 96.1745 36.44 96.1745 36.624V37.608L96.0425 37.428C96.2105 36.972 96.4825 36.628 96.8585 36.396C97.2425 36.164 97.6785 36.048 98.1665 36.048C98.6385 36.048 99.0265 36.132 99.3305 36.3C99.6345 36.468 99.8625 36.724 100.014 37.068C100.166 37.412 100.242 37.848 100.242 38.376V41.52C100.242 41.704 100.194 41.844 100.098 41.94C100.01 42.036 99.8785 42.084 99.7025 42.084C99.5265 42.084 99.3905 42.036 99.2945 41.94C99.1985 41.844 99.1505 41.704 99.1505 41.52V38.436C99.1505 37.916 99.0505 37.536 98.8505 37.296C98.6505 37.056 98.3305 36.936 97.8905 36.936C97.3785 36.936 96.9665 37.096 96.6545 37.416C96.3505 37.728 96.1985 38.152 96.1985 38.688V41.52C96.1985 41.896 96.0145 42.084 95.6465 42.084ZM104.398 42.108C103.926 42.108 103.53 42.024 103.21 41.856C102.898 41.688 102.662 41.444 102.502 41.124C102.35 40.804 102.274 40.412 102.274 39.948V36.996H101.506C101.362 36.996 101.25 36.96 101.17 36.888C101.09 36.808 101.05 36.704 101.05 36.576C101.05 36.44 101.09 36.336 101.17 36.264C101.25 36.192 101.362 36.156 101.506 36.156H102.274V34.848C102.274 34.664 102.322 34.528 102.418 34.44C102.514 34.344 102.65 34.296 102.826 34.296C103.002 34.296 103.134 34.344 103.222 34.44C103.318 34.528 103.366 34.664 103.366 34.848V36.156H104.818C104.97 36.156 105.086 36.192 105.166 36.264C105.246 36.336 105.286 36.44 105.286 36.576C105.286 36.704 105.246 36.808 105.166 36.888C105.086 36.96 104.97 36.996 104.818 36.996H103.366V39.852C103.366 40.292 103.458 40.624 103.642 40.848C103.826 41.072 104.13 41.184 104.554 41.184C104.706 41.184 104.834 41.172 104.938 41.148C105.042 41.116 105.134 41.1 105.214 41.1C105.286 41.092 105.346 41.116 105.394 41.172C105.45 41.228 105.478 41.332 105.478 41.484C105.478 41.596 105.458 41.7 105.418 41.796C105.386 41.884 105.318 41.944 105.214 41.976C105.118 42.008 104.99 42.036 104.83 42.06C104.67 42.092 104.526 42.108 104.398 42.108ZM112.319 42.108C111.943 42.108 111.579 42.076 111.227 42.012C110.875 41.956 110.543 41.868 110.231 41.748C109.919 41.628 109.639 41.48 109.391 41.304C109.287 41.232 109.211 41.144 109.163 41.04C109.123 40.936 109.111 40.836 109.127 40.74C109.151 40.636 109.195 40.548 109.259 40.476C109.331 40.404 109.415 40.36 109.511 40.344C109.607 40.328 109.711 40.36 109.823 40.44C110.191 40.688 110.575 40.868 110.975 40.98C111.383 41.092 111.831 41.148 112.319 41.148C113.023 41.148 113.539 41.02 113.867 40.764C114.203 40.508 114.371 40.172 114.371 39.756C114.371 39.412 114.251 39.144 114.011 38.952C113.771 38.752 113.367 38.596 112.799 38.484L111.527 38.22C110.775 38.06 110.211 37.796 109.835 37.428C109.467 37.06 109.283 36.568 109.283 35.952C109.283 35.576 109.359 35.236 109.511 34.932C109.663 34.62 109.879 34.352 110.159 34.128C110.439 33.904 110.767 33.732 111.143 33.612C111.527 33.492 111.951 33.432 112.415 33.432C112.911 33.432 113.375 33.5 113.807 33.636C114.247 33.772 114.643 33.972 114.995 34.236C115.091 34.308 115.155 34.396 115.187 34.5C115.219 34.596 115.223 34.692 115.199 34.788C115.183 34.884 115.139 34.964 115.067 35.028C115.003 35.092 114.919 35.128 114.815 35.136C114.719 35.144 114.611 35.108 114.491 35.028C114.171 34.804 113.843 34.644 113.507 34.548C113.171 34.444 112.803 34.392 112.403 34.392C111.995 34.392 111.639 34.456 111.335 34.584C111.039 34.712 110.807 34.892 110.639 35.124C110.479 35.348 110.399 35.612 110.399 35.916C110.399 36.284 110.511 36.572 110.735 36.78C110.959 36.988 111.335 37.148 111.863 37.26L113.123 37.512C113.923 37.68 114.515 37.94 114.899 38.292C115.291 38.636 115.487 39.1 115.487 39.684C115.487 40.052 115.411 40.384 115.259 40.68C115.115 40.976 114.907 41.232 114.635 41.448C114.363 41.656 114.031 41.82 113.639 41.94C113.247 42.052 112.807 42.108 112.319 42.108ZM118.083 44.244C117.955 44.244 117.847 44.208 117.759 44.136C117.679 44.072 117.631 43.98 117.615 43.86C117.607 43.748 117.631 43.628 117.687 43.5L118.503 41.652V42.108L116.235 36.828C116.179 36.692 116.159 36.568 116.175 36.456C116.191 36.344 116.243 36.252 116.331 36.18C116.427 36.108 116.555 36.072 116.715 36.072C116.851 36.072 116.959 36.104 117.039 36.168C117.119 36.232 117.195 36.344 117.267 36.504L119.151 41.148H118.815L120.735 36.504C120.799 36.344 120.875 36.232 120.963 36.168C121.051 36.104 121.171 36.072 121.323 36.072C121.459 36.072 121.563 36.108 121.635 36.18C121.715 36.252 121.763 36.344 121.779 36.456C121.795 36.568 121.771 36.688 121.707 36.816L118.683 43.812C118.603 43.98 118.519 44.092 118.431 44.148C118.351 44.212 118.235 44.244 118.083 44.244ZM124.837 42.108C124.477 42.108 124.113 42.068 123.745 41.988C123.385 41.9 123.045 41.752 122.725 41.544C122.637 41.488 122.573 41.42 122.533 41.34C122.501 41.252 122.489 41.168 122.497 41.088C122.513 41 122.549 40.924 122.605 40.86C122.661 40.796 122.729 40.76 122.809 40.752C122.897 40.736 122.989 40.756 123.085 40.812C123.397 40.988 123.697 41.112 123.985 41.184C124.281 41.256 124.573 41.292 124.861 41.292C125.301 41.292 125.633 41.212 125.857 41.052C126.081 40.892 126.193 40.68 126.193 40.416C126.193 40.192 126.117 40.02 125.965 39.9C125.821 39.772 125.593 39.676 125.281 39.612L124.165 39.384C123.669 39.272 123.293 39.088 123.037 38.832C122.789 38.568 122.665 38.232 122.665 37.824C122.665 37.464 122.761 37.152 122.953 36.888C123.153 36.616 123.429 36.408 123.781 36.264C124.133 36.12 124.537 36.048 124.993 36.048C125.345 36.048 125.677 36.096 125.989 36.192C126.309 36.28 126.597 36.416 126.853 36.6C126.949 36.656 127.009 36.728 127.033 36.816C127.065 36.896 127.069 36.98 127.045 37.068C127.029 37.148 126.993 37.216 126.937 37.272C126.881 37.328 126.809 37.364 126.721 37.38C126.633 37.388 126.537 37.364 126.433 37.308C126.201 37.148 125.961 37.036 125.713 36.972C125.473 36.9 125.233 36.864 124.993 36.864C124.561 36.864 124.233 36.948 124.009 37.116C123.793 37.284 123.685 37.504 123.685 37.776C123.685 37.984 123.749 38.156 123.877 38.292C124.013 38.428 124.225 38.528 124.513 38.592L125.629 38.82C126.149 38.932 126.541 39.112 126.805 39.36C127.069 39.6 127.201 39.928 127.201 40.344C127.201 40.888 126.985 41.32 126.553 41.64C126.129 41.952 125.557 42.108 124.837 42.108ZM130.988 42.108C130.516 42.108 130.12 42.024 129.8 41.856C129.488 41.688 129.252 41.444 129.092 41.124C128.94 40.804 128.864 40.412 128.864 39.948V36.996H128.096C127.952 36.996 127.84 36.96 127.76 36.888C127.679 36.808 127.639 36.704 127.639 36.576C127.639 36.44 127.679 36.336 127.76 36.264C127.84 36.192 127.952 36.156 128.096 36.156H128.864V34.848C128.864 34.664 128.912 34.528 129.008 34.44C129.104 34.344 129.24 34.296 129.416 34.296C129.592 34.296 129.724 34.344 129.812 34.44C129.908 34.528 129.956 34.664 129.956 34.848V36.156H131.408C131.56 36.156 131.676 36.192 131.756 36.264C131.836 36.336 131.876 36.44 131.876 36.576C131.876 36.704 131.836 36.808 131.756 36.888C131.676 36.96 131.56 36.996 131.408 36.996H129.956V39.852C129.956 40.292 130.048 40.624 130.232 40.848C130.416 41.072 130.72 41.184 131.144 41.184C131.296 41.184 131.424 41.172 131.528 41.148C131.632 41.116 131.724 41.1 131.804 41.1C131.876 41.092 131.936 41.116 131.984 41.172C132.04 41.228 132.068 41.332 132.068 41.484C132.068 41.596 132.048 41.7 132.008 41.796C131.976 41.884 131.908 41.944 131.804 41.976C131.708 42.008 131.58 42.036 131.42 42.06C131.26 42.092 131.116 42.108 130.988 42.108ZM135.506 42.108C134.874 42.108 134.33 41.988 133.874 41.748C133.426 41.5 133.078 41.152 132.83 40.704C132.582 40.248 132.458 39.712 132.458 39.096C132.458 38.488 132.578 37.956 132.818 37.5C133.066 37.044 133.402 36.688 133.826 36.432C134.258 36.176 134.75 36.048 135.302 36.048C135.694 36.048 136.046 36.116 136.358 36.252C136.678 36.38 136.95 36.568 137.174 36.816C137.398 37.064 137.566 37.368 137.678 37.728C137.798 38.08 137.858 38.48 137.858 38.928C137.858 39.056 137.818 39.156 137.738 39.228C137.666 39.292 137.558 39.324 137.414 39.324H133.31V38.628H137.138L136.934 38.796C136.934 38.38 136.87 38.028 136.742 37.74C136.622 37.444 136.442 37.22 136.202 37.068C135.97 36.916 135.678 36.84 135.326 36.84C134.942 36.84 134.614 36.932 134.342 37.116C134.07 37.292 133.862 37.544 133.718 37.872C133.574 38.192 133.502 38.564 133.502 38.988V39.06C133.502 39.78 133.674 40.324 134.018 40.692C134.362 41.06 134.858 41.244 135.506 41.244C135.762 41.244 136.022 41.212 136.286 41.148C136.558 41.084 136.818 40.968 137.066 40.8C137.186 40.728 137.294 40.696 137.39 40.704C137.494 40.704 137.578 40.736 137.642 40.8C137.706 40.856 137.746 40.928 137.762 41.016C137.778 41.096 137.766 41.184 137.726 41.28C137.686 41.376 137.61 41.46 137.498 41.532C137.234 41.716 136.918 41.86 136.55 41.964C136.19 42.06 135.842 42.108 135.506 42.108ZM139.78 42.084C139.612 42.084 139.48 42.036 139.384 41.94C139.288 41.844 139.24 41.704 139.24 41.52V36.624C139.24 36.44 139.288 36.304 139.384 36.216C139.48 36.12 139.612 36.072 139.78 36.072C139.948 36.072 140.076 36.12 140.164 36.216C140.26 36.304 140.308 36.44 140.308 36.624V37.644L140.176 37.428C140.328 36.988 140.572 36.648 140.908 36.408C141.252 36.168 141.66 36.048 142.132 36.048C142.628 36.048 143.028 36.168 143.332 36.408C143.636 36.64 143.84 36.996 143.944 37.476H143.776C143.92 37.036 144.176 36.688 144.544 36.432C144.92 36.176 145.356 36.048 145.852 36.048C146.292 36.048 146.652 36.136 146.932 36.312C147.22 36.48 147.436 36.736 147.58 37.08C147.724 37.416 147.796 37.848 147.796 38.376V41.52C147.796 41.704 147.748 41.844 147.652 41.94C147.556 42.036 147.424 42.084 147.256 42.084C147.08 42.084 146.944 42.036 146.848 41.94C146.752 41.844 146.704 41.704 146.704 41.52V38.424C146.704 37.912 146.616 37.536 146.44 37.296C146.264 37.056 145.968 36.936 145.552 36.936C145.096 36.936 144.732 37.096 144.46 37.416C144.196 37.728 144.064 38.16 144.064 38.712V41.52C144.064 41.704 144.016 41.844 143.92 41.94C143.832 42.036 143.7 42.084 143.524 42.084C143.348 42.084 143.212 42.036 143.116 41.94C143.02 41.844 142.972 41.704 142.972 41.52V38.424C142.972 37.912 142.884 37.536 142.708 37.296C142.532 37.056 142.236 36.936 141.82 36.936C141.364 36.936 141 37.096 140.728 37.416C140.464 37.728 140.332 38.16 140.332 38.712V41.52C140.332 41.896 140.148 42.084 139.78 42.084Z" fill="#919191"/>
</svg>
